<svg height='100px' width='100px'  fill="#000000" xmlns:dc="http://purl.org/dc/elements/1.1/" xmlns:cc="http://creativecommons.org/ns#" xmlns:rdf="http://www.w3.org/1999/02/22-rdf-syntax-ns#" xmlns:svg="http://www.w3.org/2000/svg" xmlns="http://www.w3.org/2000/svg" xmlns:sodipodi="http://sodipodi.sourceforge.net/DTD/sodipodi-0.dtd" xmlns:inkscape="http://www.inkscape.org/namespaces/inkscape" viewBox="0 0 94.673799 84.515405" version="1.1" x="0px" y="0px"><g transform="translate(-263.93871,-519.39153)"><g transform="matrix(1.0276359,0,0,1.0276359,-2.4974537,-16.689483)"><path d="m 265.40226,587.36553 -5.41425,5.75608 11.39485,10.10152 5.1987,-5.10941 z" style="" fill="#000000" fill-opacity="1" fill-rule="evenodd" stroke="#000000" stroke-width="1px" stroke-linecap="butt" stroke-linejoin="miter" stroke-opacity="1"></path><path d="m 266.68027,585.92427 30.93592,-30.43085 3.40927,0.12627 11.74302,-9.84899 -4.41942,-2.14657 4.41942,-10.85914 17.5514,7.70241 -4.29315,10.85914 -6.18718,-2.65165 -11.74302,13.38452 -0.50508,5.42957 -29.54696,29.29443 z" style="" fill="#000000" fill-opacity="1" fill-rule="evenodd" stroke="#000000" stroke-width="1px" stroke-linecap="butt" stroke-linejoin="miter" stroke-opacity="1"></path><path d="m 332.0813,541.29264 3.45259,1.53689 -4.49338,10.55431 -3.34164,-1.46293 z" style="" fill="#000000" fill-opacity="1" fill-rule="evenodd" stroke="#000000" stroke-width="1px" stroke-linecap="butt" stroke-linejoin="miter" stroke-opacity="1"></path><path d="m 337.58484,543.855 8.64495,3.80974 -0.12627,3.03046 4.63497,2.26649 -2.23586,4.80457 -4.1822,-1.82006 -2.13125,1.69379 -9.02375,-3.48323 z" style="" fill="#000000" fill-opacity="1" fill-rule="evenodd" stroke="#000000" stroke-width="1px" stroke-linecap="butt" stroke-linejoin="miter" stroke-opacity="1"></path><path d="m 310.64358,532.06602 -6.71393,-1.95268 -1.80475,1.10579 -24.20668,-8.93447 -2.14657,4.04061 23.99112,11.36421 0.75761,2.52538 5.91933,2.51006 z" style="" fill="#000000" fill-opacity="1" fill-rule="evenodd" stroke="#000000" stroke-width="1px" stroke-linecap="butt" stroke-linejoin="miter" stroke-opacity="1"></path></g></g></svg>