<svg xmlns="http://www.w3.org/2000/svg" xmlns:xlink="http://www.w3.org/1999/xlink" version="1.1" x="0px" y="0px" viewBox="0 0 30 37.5" enable-background="new 0 0 30 30" xml:space="preserve"><g><g><path fill="#000000" d="M4.565,23.25c-0.027,0-0.055-0.006-0.081-0.018l-2.54-1.135c-0.1-0.044-0.144-0.161-0.1-0.26    c0.044-0.101,0.161-0.145,0.26-0.101l2.54,1.136c0.1,0.044,0.144,0.161,0.1,0.26C4.713,23.206,4.641,23.25,4.565,23.25z"/></g><g><path fill="#000000" d="M4.915,22.737c-0.062,0-0.123-0.029-0.161-0.083l-1.119-1.576c-0.063-0.088-0.042-0.211,0.046-0.274    c0.088-0.063,0.211-0.042,0.275,0.047l1.119,1.576c0.063,0.088,0.042,0.211-0.046,0.273C4.994,22.726,4.954,22.737,4.915,22.737z"/></g><g><path fill="#000000" d="M2.49,24.083c-0.099,0-0.184-0.074-0.195-0.175c-0.013-0.108,0.065-0.206,0.173-0.219l1.92-0.218    c0.109-0.013,0.206,0.066,0.218,0.174c0.012,0.109-0.065,0.205-0.173,0.218l-1.92,0.218C2.504,24.082,2.497,24.083,2.49,24.083z"/></g><path fill="#000000" d="M28.138,13.507c-0.063-0.144-0.205-0.234-0.36-0.234H14.372c-0.218,0-0.394,0.176-0.394,0.394v2.103h-3.253   l-0.281-0.622l-0.011-0.004l3.792-8.676l-1.261-0.55l-3.792,8.674l-0.01-0.005l-0.6,0.256l-1.314,3.009l-0.116-0.052   c-0.069-0.03-0.148-0.031-0.218-0.004c-0.071,0.027-0.127,0.082-0.157,0.151l-0.361,0.826c-0.061,0.139-0.001,0.299,0.133,0.367   c-1.463,3.364-1.085,3.532-1.085,3.532l0.705,0.308L6,23.304c-0.03,0.065-0.002,0.145,0.064,0.174   c0.018,0.008,0.037,0.012,0.055,0.012c0.049,0,0.097-0.027,0.119-0.076l0.15-0.328l0.661,0.289c0,0,0.379,0.163,1.855-3.194   l0.044,0.019c0.037,0.017,0.075,0.024,0.113,0.024c0.11,0,0.214-0.063,0.262-0.171l0.361-0.826   c0.031-0.069,0.032-0.147,0.004-0.218c-0.027-0.069-0.082-0.127-0.151-0.157L9.421,18.8l0.494-1.131l4.063,0.004v1.775   c0,0.218,0.176,0.395,0.394,0.395h8.147c0.111,0,0.218-0.047,0.293-0.129l5.257-5.782C28.174,13.815,28.201,13.649,28.138,13.507z    M8.915,19.563l-1.884-0.824l0.133-0.305l1.884,0.824L8.915,19.563z M22.346,19.054h-7.579v-4.993h12.12L22.346,19.054z"/><g><path fill="#000000" d="M22.246,15.043h-6.702c-0.097,0-0.175-0.078-0.175-0.175s0.078-0.175,0.175-0.175h6.702    c0.098,0,0.176,0.078,0.176,0.175S22.344,15.043,22.246,15.043z"/></g><g><path fill="#000000" d="M24.064,15.043h-0.963c-0.098,0-0.176-0.078-0.176-0.175s0.078-0.175,0.176-0.175h0.963    c0.097,0,0.175,0.078,0.175,0.175S24.161,15.043,24.064,15.043z"/></g></g><text x="0" y="45" fill="#000000" font-size="5px" font-weight="bold" font-family="'Helvetica Neue', Helvetica, Arial-Unicode, Arial, Sans-serif">Created by Clément Branger</text><text x="0" y="50" fill="#000000" font-size="5px" font-weight="bold" font-family="'Helvetica Neue', Helvetica, Arial-Unicode, Arial, Sans-serif">from the Noun Project</text></svg>